<?xml version="1.0" encoding="UTF-8" standalone="no"?>
<!-- Created with Inkscape (http://www.inkscape.org/) -->

<svg
   xmlns:dc="http://purl.org/dc/elements/1.1/"
   xmlns:cc="http://creativecommons.org/ns#"
   xmlns:rdf="http://www.w3.org/1999/02/22-rdf-syntax-ns#"
   xmlns:svg="http://www.w3.org/2000/svg"
   xmlns="http://www.w3.org/2000/svg"
   xmlns:xlink="http://www.w3.org/1999/xlink"
   xmlns:sodipodi="http://sodipodi.sourceforge.net/DTD/sodipodi-0.dtd"
   xmlns:inkscape="http://www.inkscape.org/namespaces/inkscape"
   width="7.7103615in"
   height="7.7103615in"
   viewBox="0 0 195.84318 195.84318"
   version="1.1"
   id="svg5495"
   inkscape:version="0.92.1 r15371"
   sodipodi:docname="patch.svg">
  <defs
     id="defs5489">
    <linearGradient
       inkscape:collect="always"
       id="linearGradient6225">
      <stop
         style="stop-color:#0055d4;stop-opacity:1"
         offset="0"
         id="stop6221" />
      <stop
         style="stop-color:#000000;stop-opacity:1"
         offset="1"
         id="stop6223" />
    </linearGradient>
    <linearGradient
       inkscape:collect="always"
       xlink:href="#linearGradient6225"
       id="linearGradient6227"
       x1="134.18155"
       y1="227.64137"
       x2="74.673752"
       y2="124.57085"
       gradientUnits="userSpaceOnUse" />
  </defs>
  <sodipodi:namedview
     id="base"
     pagecolor="#ffffff"
     bordercolor="#666666"
     borderopacity="1.0"
     inkscape:pageopacity="0.0"
     inkscape:pageshadow="2"
     inkscape:zoom="0.7"
     inkscape:cx="383.88529"
     inkscape:cy="401.00485"
     inkscape:document-units="mm"
     inkscape:current-layer="layer1"
     showgrid="false"
     units="in"
     inkscape:snap-center="true"
     inkscape:window-width="1920"
     inkscape:window-height="991"
     inkscape:window-x="-10"
     inkscape:window-y="-10"
     inkscape:window-maximized="1"
     inkscape:snap-nodes="true"
     fit-margin-top="0.3"
     fit-margin-left="0.3"
     fit-margin-right="0.3"
     fit-margin-bottom="0.3" />
  <metadata
     id="metadata5492">
    <rdf:RDF>
      <cc:Work
         rdf:about="">
        <dc:format>image/svg+xml</dc:format>
        <dc:type
           rdf:resource="http://purl.org/dc/dcmitype/StillImage" />
        <dc:title></dc:title>
      </cc:Work>
    </rdf:RDF>
  </metadata>
  <g
     inkscape:label="Layer 1"
     inkscape:groupmode="layer"
     id="layer1"
     transform="translate(-9.2534894,-76.936229)">
    <circle
       style="opacity:1;fill:#000000;fill-opacity:1;stroke:none;stroke-width:3.463974;stroke-linecap:round;stroke-linejoin:miter;stroke-miterlimit:4;stroke-dasharray:none;stroke-dashoffset:0;stroke-opacity:1"
       id="path6040"
       cx="107.17508"
       cy="174.85782"
       r="88.569603" />
    <circle
       r="88.569603"
       cy="174.85782"
       cx="107.17508"
       id="circle6042"
       style="opacity:1;fill:#000000;fill-opacity:1;stroke:#991515;stroke-width:3.463974;stroke-linecap:round;stroke-linejoin:miter;stroke-miterlimit:4;stroke-dasharray:none;stroke-dashoffset:0;stroke-opacity:1" />
    <circle
       style="opacity:1;fill:none;fill-opacity:1;stroke:none;stroke-width:3.463974;stroke-linecap:round;stroke-linejoin:miter;stroke-miterlimit:4;stroke-dasharray:none;stroke-dashoffset:0;stroke-opacity:1"
       id="circle6069"
       r="68.930107"
       cy="174.85782"
       cx="107.17508" />
    <path
       style="opacity:1;fill:none;fill-opacity:1;stroke:none;stroke-width:3.463974;stroke-linecap:round;stroke-linejoin:miter;stroke-miterlimit:4;stroke-dasharray:none;stroke-dashoffset:0;stroke-opacity:1"
       d="m 37.976074,174.85782 a 68.930106,68.930106 0 0 0 68.930106,68.9301 68.930106,68.930106 0 0 0 68.93011,-68.9301 68.930106,68.930106 0 0 0 -68.93011,-68.9301 68.930106,68.930106 0 0 0 -68.930106,68.9301 z"
       id="circle6081"
       inkscape:connector-curvature="0" />
    <circle
       style="opacity:1;fill:url(#linearGradient6227);fill-opacity:1;stroke:#991515;stroke-width:2.37576985;stroke-linecap:round;stroke-linejoin:miter;stroke-miterlimit:4;stroke-dasharray:none;stroke-dashoffset:0;stroke-opacity:1"
       id="circle6107"
       cx="107.17508"
       cy="174.85782"
       r="60.745544" />
    <g
       aria-label="RENERT SCHOOL SPACE PROGRAM"
       transform="rotate(90,107.17507,174.8578)"
       inkscape:transform-center-x="-0.056396039"
       inkscape:transform-center-y="-42.395452"
       style="font-style:normal;font-weight:normal;font-size:14.11111069px;line-height:1.25;font-family:sans-serif;letter-spacing:0px;word-spacing:0px;fill:#ffffff;fill-opacity:1;stroke:none;stroke-width:0.26458332"
       id="text7083">
      <path
         d="m 100.13871,253.70987 -2.951983,-0.38173 q -1.346159,-0.17407 -2.033259,-0.98546 -0.693933,-0.81228 -0.537533,-2.02178 0.08925,-0.69016 0.547724,-1.38816 0.451645,-0.69888 1.469924,-0.99795 l -2.024482,-4.0621 2.213988,0.28629 1.874445,3.77174 0.218665,0.0283 0.448877,-3.47132 1.933824,0.25007 z m -1.740722,-1.85083 0.302197,-2.33698 -0.416832,-0.0539 q -1.510158,-0.19528 -1.670093,1.04154 -0.06539,0.50567 0.292949,0.85075 0.350618,0.35103 1.047615,0.44116 z"
         style="font-style:normal;font-variant:normal;font-weight:bold;font-stretch:normal;font-family:'Tw Cen MT';-inkscape-font-specification:'Tw Cen MT Bold';text-align:center;text-anchor:middle;fill:#ffffff;stroke-width:0.26458332"
         id="path7095" />
      <path
         d="m 91.00184,252.33549 -4.950728,-1.19048 0.418843,-1.7418 3.054847,0.73458 0.426898,-1.77529 -3.054847,-0.73459 0.412399,-1.715 3.054847,0.73459 0.438174,-1.82219 -3.054846,-0.73459 0.418843,-1.7418 4.950727,1.19049 z"
         style="font-style:normal;font-variant:normal;font-weight:bold;font-stretch:normal;font-family:'Tw Cen MT';-inkscape-font-specification:'Tw Cen MT Bold';text-align:center;text-anchor:middle;fill:#ffffff;stroke-width:0.26458332"
         id="path7097" />
      <path
         d="m 77.814192,248.3508 -1.790034,-0.66217 3.138732,-8.48489 1.770646,0.655 1.864788,6.93435 2.031928,-5.49288 1.822345,0.67412 -3.138732,8.48489 -1.796496,-0.66456 -1.885592,-6.89797 z"
         style="font-style:normal;font-variant:normal;font-weight:bold;font-stretch:normal;font-family:'Tw Cen MT';-inkscape-font-specification:'Tw Cen MT Bold';text-align:center;text-anchor:middle;fill:#ffffff;stroke-width:0.26458332"
         id="path7099" />
      <path
         d="m 73.404259,246.44169 -4.534148,-2.31699 0.81518,-1.59524 2.797796,1.4297 0.830857,-1.62591 -2.797796,-1.4297 0.802638,-1.57069 2.797797,1.4297 0.852803,-1.66886 -2.797796,-1.4297 0.81518,-1.59524 4.534148,2.31699 z"
         style="font-style:normal;font-variant:normal;font-weight:bold;font-stretch:normal;font-family:'Tw Cen MT';-inkscape-font-specification:'Tw Cen MT Bold';text-align:center;text-anchor:middle;fill:#ffffff;stroke-width:0.26458332"
         id="path7101" />
      <path
         d="m 66.604477,242.84306 -2.491183,-1.62909 q -1.136026,-0.74289 -1.401234,-1.77252 -0.270974,-1.0334 0.3965,-2.05409 0.380875,-0.58243 1.09755,-1.01113 0.710908,-0.43246 1.757806,-0.25828 l -0.05359,-4.53832 1.868388,1.22182 0.04496,4.2116 0.184532,0.12067 1.915688,-2.92944 1.631956,1.0672 z m -0.761066,-2.42413 1.289695,-1.97219 -0.351764,-0.23003 q -1.274425,-0.8334 -1.956983,0.21036 -0.279057,0.42673 -0.106747,0.89341 0.162772,0.46868 0.750968,0.85333 z"
         style="font-style:normal;font-variant:normal;font-weight:bold;font-stretch:normal;font-family:'Tw Cen MT';-inkscape-font-specification:'Tw Cen MT Bold';text-align:center;text-anchor:middle;fill:#ffffff;stroke-width:0.26458332"
         id="path7103" />
      <path
         d="m 59.578382,238.11127 -4.711463,-3.84937 1.216278,-1.48867 1.606059,1.31219 4.507641,-5.51717 1.510016,1.23372 -4.507641,5.51716 1.595389,1.30347 z"
         style="font-style:normal;font-variant:normal;font-weight:bold;font-stretch:normal;font-family:'Tw Cen MT';-inkscape-font-specification:'Tw Cen MT Bold';text-align:center;text-anchor:middle;fill:#ffffff;stroke-width:0.26458332"
         id="path7105" />
      <path
         d="m 47.445899,225.51962 1.799708,0.004 q 0.225639,1.08884 0.50821,1.39998 0.217718,0.23973 0.558839,0.24639 0.336021,0.0113 0.585952,-0.21569 0.494761,-0.44934 0.04162,-1.67594 -0.317033,-0.91276 -0.393237,-1.45786 -0.0813,-0.54046 0.117824,-1.13084 0.194496,-0.59548 0.663755,-1.02165 0.862007,-0.78286 2.134212,-0.66312 1.267573,0.11465 2.129182,1.06337 0.944991,1.04053 0.887499,2.94496 l -1.968447,0.0565 q 0.07894,-1.23515 -0.425978,-1.79112 -0.236248,-0.26013 -0.683495,-0.2914 -0.452348,-0.0267 -0.707379,0.20497 -0.525365,0.47713 0.082,1.94528 0.344878,0.84094 0.386833,1.28683 0.03686,0.45052 -0.17893,0.98157 -0.225517,0.53058 -0.628467,0.89653 -0.892611,0.81065 -1.976663,0.7341 -1.084052,-0.0765 -1.936396,-1.01506 -1.009843,-1.11194 -0.996638,-2.50146 z"
         style="font-style:normal;font-variant:normal;font-weight:bold;font-stretch:normal;font-family:'Tw Cen MT';-inkscape-font-specification:'Tw Cen MT Bold';text-align:center;text-anchor:middle;fill:#ffffff;stroke-width:0.26458332"
         id="path7107" />
      <path
         d="m 41.56555,218.32313 1.785853,-1.30483 q 0.148141,1.70937 0.798522,2.59952 0.650381,0.89014 1.652584,0.97709 1.002203,0.087 2.036996,-0.66912 0.979159,-0.71542 1.158327,-1.7082 0.173604,-0.98871 -0.513361,-1.92893 -0.601603,-0.82338 -2.101013,-1.48572 l 1.769162,-1.29263 q 1.36737,0.97215 1.993362,1.82891 1.077194,1.4743 0.749897,3.29212 -0.332861,1.82188 -1.890614,2.96005 -1.58557,1.15849 -3.445758,0.91335 -1.869817,-0.24664 -2.967335,-1.74875 -0.70729,-0.96804 -1.026622,-2.43286 z"
         style="font-style:normal;font-variant:normal;font-weight:bold;font-stretch:normal;font-family:'Tw Cen MT';-inkscape-font-specification:'Tw Cen MT Bold';text-align:center;text-anchor:middle;fill:#ffffff;stroke-width:0.26458332"
         id="path7109" />
      <path
         d="m 39.780466,216.43227 -0.949088,-1.70336 3.045584,-1.69696 -1.559456,-2.79881 -3.045583,1.69696 -0.945735,-1.69734 7.902869,-4.40337 0.945734,1.69734 -3.141887,1.75062 1.559456,2.79881 3.141887,-1.75062 0.949088,1.70336 z"
         style="font-style:normal;font-variant:normal;font-weight:bold;font-stretch:normal;font-family:'Tw Cen MT';-inkscape-font-specification:'Tw Cen MT Bold';text-align:center;text-anchor:middle;fill:#ffffff;stroke-width:0.26458332"
         id="path7111" />
      <path
         d="m 39.263057,206.05629 q -1.869931,0.72358 -3.561834,-0.0402 -1.700816,-0.76776 -2.357256,-2.46419 -0.726063,-1.87636 0.02636,-3.57863 0.745993,-1.69978 2.615925,-2.42336 1.85708,-0.7186 3.554375,0.021 1.697295,0.73956 2.410926,2.58379 0.71363,1.84423 -0.0448,3.51188 -0.760912,1.66123 -2.643696,2.38978 z m -4.267834,-3.23944 q 0.390998,1.06773 1.393964,1.42583 1.002967,0.35809 2.191755,-0.10192 1.124529,-0.43514 1.607394,-1.38295 0.482866,-0.94782 0.09248,-1.95668 -0.410275,-1.06027 -1.387538,-1.42831 -0.986175,-0.37198 -2.181389,0.0905 -1.175937,0.45504 -1.640558,1.37363 -0.467108,0.91216 -0.07611,1.97989 z"
         style="font-style:normal;font-variant:normal;font-weight:bold;font-stretch:normal;font-family:'Tw Cen MT';-inkscape-font-specification:'Tw Cen MT Bold';text-align:center;text-anchor:middle;fill:#ffffff;stroke-width:0.26458332"
         id="path7113" />
      <path
         d="m 35.380134,195.61879 q -1.957144,0.43565 -3.515722,-0.57271 -1.566801,-1.01358 -1.962035,-2.78914 -0.437154,-1.96387 0.561486,-3.5344 0.991913,-1.56903 2.949057,-2.00469 1.943692,-0.43266 3.51123,0.55253 1.567538,0.98519 1.997206,2.91543 0.429668,1.93024 -0.569731,3.46565 -1.000897,1.52868 -2.971491,1.96733 z m -3.735118,-3.84152 q 0.226845,1.11421 1.164945,1.61834 0.9381,0.50412 2.182332,0.22715 1.176977,-0.26199 1.796217,-1.12689 0.61924,-0.8649 0.384195,-1.92082 -0.247021,-1.10972 -1.158219,-1.61983 -0.91942,-0.51534 -2.170378,-0.23688 -1.230781,0.27397 -1.82761,1.11271 -0.598327,0.83201 -0.371482,1.94622 z"
         style="font-style:normal;font-variant:normal;font-weight:bold;font-stretch:normal;font-family:'Tw Cen MT';-inkscape-font-specification:'Tw Cen MT Bold';text-align:center;text-anchor:middle;fill:#ffffff;stroke-width:0.26458332"
         id="path7115" />
      <path
         d="m 28.694505,184.97452 -0.195474,-1.92625 7.060635,-0.71651 -0.269211,-2.65288 1.939961,-0.19686 0.464684,4.57913 z"
         style="font-style:normal;font-variant:normal;font-weight:bold;font-stretch:normal;font-family:'Tw Cen MT';-inkscape-font-specification:'Tw Cen MT Bold';text-align:center;text-anchor:middle;fill:#ffffff;stroke-width:0.26458332"
         id="path7117" />
      <path
         d="m 29.077621,168.92335 1.278172,1.26698 q -0.604375,0.93339 -0.621872,1.35333 -0.01348,0.32356 0.224599,0.56794 0.231196,0.24411 0.568522,0.25816 0.667769,0.0278 1.207031,-1.16343 0.415633,-0.87229 0.744353,-1.31374 0.321836,-0.44174 0.87831,-0.72199 0.556761,-0.28713 1.190109,-0.26074 1.163432,0.0485 1.984664,1.02747 0.821519,0.9721 0.768169,2.25257 -0.05851,1.40438 -1.437362,2.71927 l -1.440525,-1.34271 q 0.923917,-0.82353 0.955182,-1.57391 0.01463,-0.35109 -0.281681,-0.68756 -0.303193,-0.33675 -0.647404,-0.35109 -0.709074,-0.0295 -1.308285,1.44196 -0.345357,0.84073 -0.628756,1.18753 -0.290284,0.3465 -0.816926,0.57282 -0.53324,0.21915 -1.077093,0.19649 -1.204738,-0.0502 -1.92242,-0.86626 -0.717681,-0.81606 -0.664904,-2.08276 0.06253,-1.50076 1.048117,-2.48033 z"
         style="font-style:normal;font-variant:normal;font-weight:bold;font-stretch:normal;font-family:'Tw Cen MT';-inkscape-font-specification:'Tw Cen MT Bold';text-align:center;text-anchor:middle;fill:#ffffff;stroke-width:0.26458332"
         id="path7119" />
      <path
         d="m 28.493681,166.32784 0.428777,-3.06384 q 0.172847,-1.23508 1.002159,-1.89129 0.822488,-0.65716 1.996164,-0.4929 0.771077,0.10791 1.414571,0.58061 0.637625,0.46493 0.873764,1.26329 0.236139,0.79835 0.175299,1.33251 l -0.129318,1.12291 3.466436,0.48512 -0.268344,1.91745 z m 1.874915,-1.66479 2.292761,0.32087 0.105045,-0.75061 q 0.0678,-0.48448 -0.232458,-0.87437 -0.299305,-0.39671 -0.776964,-0.46356 -0.545895,-0.0764 -0.90057,0.27054 -0.354676,0.34693 -0.454946,1.06342 z"
         style="font-style:normal;font-variant:normal;font-weight:bold;font-stretch:normal;font-family:'Tw Cen MT';-inkscape-font-specification:'Tw Cen MT Bold';text-align:center;text-anchor:middle;fill:#ffffff;stroke-width:0.26458332"
         id="path7121" />
      <path
         d="m 30.369758,155.87264 0.377521,-1.46097 9.683085,-1.31229 -0.48957,1.89459 -1.905585,0.26905 -0.867091,3.35555 1.543579,1.13187 -0.487846,1.88791 z m 3.05818,0.007 2.317955,1.6878 0.536114,-2.0747 z"
         style="font-style:normal;font-variant:normal;font-weight:bold;font-stretch:normal;font-family:'Tw Cen MT';-inkscape-font-specification:'Tw Cen MT Bold';text-align:center;text-anchor:middle;fill:#ffffff;stroke-width:0.26458332"
         id="path7123" />
      <path
         d="m 35.192225,143.03408 2.059202,0.80717 q -1.36313,1.04201 -1.765459,2.0684 -0.402329,1.0264 0.06192,1.91883 0.464249,0.89244 1.657432,1.36015 1.129033,0.44256 2.062989,0.0612 0.927541,-0.38388 1.352501,-1.46801 0.372155,-0.94941 0.126773,-2.57013 l 2.039958,0.79963 q -0.08691,1.67548 -0.474152,2.66338 -0.666358,1.69997 -2.376053,2.39891 -1.716111,0.69643 -3.5123,-0.008 -1.828264,-0.71665 -2.619275,-2.41803 -0.794912,-1.71031 -0.115981,-3.44235 0.437532,-1.11621 1.502446,-2.1715 z"
         style="font-style:normal;font-variant:normal;font-weight:bold;font-stretch:normal;font-family:'Tw Cen MT';-inkscape-font-specification:'Tw Cen MT Bold';text-align:center;text-anchor:middle;fill:#ffffff;stroke-width:0.26458332"
         id="path7125" />
      <path
         d="m 35.807032,140.63394 2.345782,-4.51932 1.590018,0.82531 -1.447465,2.78864 1.620595,0.84118 1.447465,-2.78864 1.565556,0.81261 -1.447465,2.78865 1.663403,0.8634 1.447465,-2.78865 1.590018,0.82531 -2.345782,4.51932 z"
         style="font-style:normal;font-variant:normal;font-weight:bold;font-stretch:normal;font-family:'Tw Cen MT';-inkscape-font-specification:'Tw Cen MT Bold';text-align:center;text-anchor:middle;fill:#ffffff;stroke-width:0.26458332"
         id="path7127" />
      <path
         d="m 41.758653,130.29732 1.832479,-2.49258 q 0.738705,-1.00481 1.780173,-1.1884 1.035917,-0.18768 1.990759,0.5143 0.62731,0.46118 0.969085,1.18279 0.340305,0.71198 0.168939,1.5267 -0.171367,0.81472 -0.478601,1.25589 l -0.647119,0.92676 2.820117,2.07327 -1.14683,1.55995 z m 2.440638,-0.57457 1.865274,1.3713 0.448937,-0.61065 q 0.289768,-0.39415 0.210708,-0.87987 -0.07498,-0.49126 -0.463577,-0.77695 -0.444113,-0.3265 -0.921006,-0.18964 -0.476893,0.13685 -0.905424,0.71975 z"
         style="font-style:normal;font-variant:normal;font-weight:bold;font-stretch:normal;font-family:'Tw Cen MT';-inkscape-font-specification:'Tw Cen MT Bold';text-align:center;text-anchor:middle;fill:#ffffff;stroke-width:0.26458332"
         id="path7129" />
      <path
         d="m 46.869368,123.58413 2.015332,-2.19052 q 0.919029,-0.99891 1.978199,-1.09179 1.063835,-0.098 1.961338,0.72777 0.512135,0.47118 0.817583,1.24842 0.310113,0.77217 -0.03329,1.77637 l 4.485738,0.6909 -1.511499,1.64289 -4.162025,-0.64587 -0.149284,0.16226 2.575884,2.36988 -1.320229,1.43499 z m 2.516089,-0.35349 1.734158,1.59547 0.284572,-0.30931 q 1.030992,-1.12061 0.113207,-1.965 -0.375228,-0.34522 -0.863842,-0.25172 -0.48902,0.0838 -0.964863,0.60096 z"
         style="font-style:normal;font-variant:normal;font-weight:bold;font-stretch:normal;font-family:'Tw Cen MT';-inkscape-font-specification:'Tw Cen MT Bold';text-align:center;text-anchor:middle;fill:#ffffff;stroke-width:0.26458332"
         id="path7131" />
      <path
         d="m 55.622236,120.76333 q -1.289129,-1.53569 -1.113156,-3.38366 0.17682,-1.85767 1.570027,-3.02719 1.540971,-1.29356 3.395064,-1.13172 1.849663,0.15655 3.138791,1.69225 1.280268,1.52514 1.128988,3.37037 -0.151281,1.84523 -1.665866,3.11664 -1.514585,1.27141 -3.337861,1.0927 -1.817999,-0.18314 -3.115987,-1.72939 z m 1.686134,-5.08579 q -0.884044,0.71512 -0.898742,1.77999 -0.0147,1.06487 0.804851,2.04117 0.775249,0.92353 1.82826,1.07413 1.053011,0.1506 1.881547,-0.54491 0.870754,-0.73095 0.903172,-1.77471 0.03327,-1.05347 -0.790714,-2.03505 -0.810689,-0.96575 -1.830148,-1.10853 -1.014182,-0.14721 -1.898226,0.56791 z"
         style="font-style:normal;font-variant:normal;font-weight:bold;font-stretch:normal;font-family:'Tw Cen MT';-inkscape-font-specification:'Tw Cen MT Bold';text-align:center;text-anchor:middle;fill:#ffffff;stroke-width:0.26458332"
         id="path7133" />
      <path
         d="m 69.642266,107.35471 -0.458622,1.71411 q -0.716573,-0.38172 -1.407534,-0.35731 -0.694603,0.0185 -1.250258,0.36454 -0.900745,0.56086 -1.141419,1.66038 -0.234825,1.09588 0.344249,2.02587 0.615495,0.98848 1.706184,1.26711 1.092897,0.26915 2.028736,-0.31357 0.508862,-0.31685 0.816535,-0.86556 0.313521,-0.55236 0.159443,-1.43854 l -1.819037,1.13265 -0.932346,-1.49734 3.54449,-2.20704 0.619136,0.99433 q 0.477099,0.76622 0.500628,1.97719 0.01989,1.20513 -0.584976,2.14993 -0.608506,0.93895 -1.485855,1.48525 -1.590926,0.99062 -3.402158,0.51942 -1.811231,-0.47121 -2.867405,-2.16742 -1.001543,-1.60847 -0.588722,-3.44828 0.41867,-1.84346 2.003747,-2.83043 2.023752,-1.26013 4.215184,-0.16529 z"
         style="font-style:normal;font-variant:normal;font-weight:bold;font-stretch:normal;font-family:'Tw Cen MT';-inkscape-font-specification:'Tw Cen MT Bold';text-align:center;text-anchor:middle;fill:#ffffff;stroke-width:0.26458332"
         id="path7136" />
      <path
         d="m 71.410389,104.21937 2.707389,-1.23692 q 1.234619,-0.56406 2.246846,-0.23869 1.018494,0.32251 1.525287,1.43178 0.289187,0.63298 0.269124,1.46785 -0.0138,0.832 -0.719937,1.62428 l 3.866218,2.37729 -2.030541,0.92769 -3.585341,-2.21019 -0.200547,0.0916 1.454525,3.18369 -1.77359,0.81029 z m 2.456122,0.65048 0.979228,2.14335 0.382294,-0.17466 q 1.385029,-0.63278 0.866783,-1.76712 -0.211879,-0.46377 -0.698491,-0.56719 -0.483207,-0.11255 -1.122452,0.17951 z"
         style="font-style:normal;font-variant:normal;font-weight:bold;font-stretch:normal;font-family:'Tw Cen MT';-inkscape-font-specification:'Tw Cen MT Bold';text-align:center;text-anchor:middle;fill:#ffffff;stroke-width:0.26458332"
         id="path7138" />
      <path
         d="m 83.039921,99.510395 1.441732,-0.445358 6.198736,7.553803 -1.869644,0.57754 -1.229076,-1.48088 -3.311376,1.0229 -0.153407,1.90794 -1.863061,0.5755 z m 1.598604,2.607105 -0.220236,2.85886 2.047392,-0.63245 z"
         style="font-style:normal;font-variant:normal;font-weight:bold;font-stretch:normal;font-family:'Tw Cen MT';-inkscape-font-specification:'Tw Cen MT Bold';text-align:center;text-anchor:middle;fill:#ffffff;stroke-width:0.26458332"
         id="path7140" />
      <path
         d="m 91.312598,97.250376 2.289213,-0.345268 2.48474,5.109152 0.867322,-5.614724 2.214269,-0.333964 2.493828,8.773008 -1.83955,0.27745 -1.732998,-6.177163 -1.019508,6.592303 -0.878895,0.13256 -2.974396,-6.045673 0.215077,6.461843 -1.866799,0.28156 z"
         style="font-style:normal;font-variant:normal;font-weight:bold;font-stretch:normal;font-family:'Tw Cen MT';-inkscape-font-specification:'Tw Cen MT Bold';text-align:center;text-anchor:middle;fill:#ffffff;stroke-width:0.26458332"
         id="path7142" />
    </g>
    <g
       aria-label="Ad sublimitates novae"
       transform="rotate(-90,105.3187,173.27034)"
       inkscape:transform-center-x="0.010680946"
       inkscape:transform-center-y="67.976515"
       style="font-style:normal;font-weight:normal;font-size:14.11111069px;line-height:1.25;font-family:sans-serif;letter-spacing:0px;word-spacing:0px;fill:#ffffff;fill-opacity:1;stroke:none;stroke-width:0.26458332"
       id="text7087">
      <path
         d="m 49.387755,130.80219 -8.644697,-3.7658 0.726883,-0.91852 1.91659,0.83137 2.163544,-2.73392 -0.864749,-2.1605 0.829501,-1.04819 z m -2.062236,-2.12405 -1.364234,-3.41689 -1.663278,2.10177 z"
         style="font-style:italic;font-variant:normal;font-weight:normal;font-stretch:normal;font-family:'Tw Cen MT';-inkscape-font-specification:'Tw Cen MT Italic';text-align:center;text-anchor:middle;fill:#ffffff;stroke-width:0.26458332"
         id="path7149"
         inkscape:connector-curvature="0" />
      <path
         d="m 44.818487,137.55186 -0.636538,0.98328 -6.938064,-6.13303 0.62905,-0.97171 0.483116,0.39483 q -0.06417,-0.64893 -0.0032,-1.0855 0.05726,-0.43079 0.345575,-0.87615 0.565395,-0.87339 1.722739,-1.07629 1.157343,-0.2029 2.105919,0.41117 1.017983,0.65901 1.280764,1.86332 0.259036,1.2101 -0.396224,2.2223 -0.760102,1.17415 -2.275688,1.03023 z m -4.851195,-4.15827 q 0.63624,0.41188 1.38149,0.26232 0.74525,-0.14957 1.145895,-0.76845 0.426855,-0.65938 0.215706,-1.43629 -0.205365,-0.77317 -0.934149,-1.24495 -0.642023,-0.41562 -1.377745,-0.2681 -0.733682,0.15705 -1.141816,0.78751 -0.411877,0.63624 -0.204473,1.41893 0.203661,0.78848 0.915092,1.24903 z"
         style="font-style:italic;font-variant:normal;font-weight:normal;font-stretch:normal;font-family:'Tw Cen MT';-inkscape-font-specification:'Tw Cen MT Italic';text-align:center;text-anchor:middle;fill:#ffffff;stroke-width:0.26458332"
         id="path7151"
         inkscape:connector-curvature="0" />
      <path
         d="m 35.444155,137.42779 0.452019,0.94205 q -0.550112,0.16815 -0.868857,0.36509 -0.321773,0.20313 -0.500371,0.56832 -0.145301,0.2971 -0.102833,0.57098 0.04866,0.27691 0.252914,0.3768 0.33424,0.16346 1.01411,-0.31707 0.67987,-0.48052 1.162843,-0.57413 0.479947,-0.0874 0.975117,0.15474 0.625151,0.30574 0.834691,1.00648 0.215729,0.70377 -0.114224,1.37844 -0.311791,0.63753 -1.379305,1.18926 l -0.452018,-0.94205 q 0.73901,-0.41325 0.917609,-0.77844 0.133192,-0.27235 0.05386,-0.53358 -0.07315,-0.2582 -0.32073,-0.37928 -0.204257,-0.0999 -0.447054,-0.0269 -0.239635,0.0822 -0.754146,0.44421 -0.514511,0.36197 -0.975889,0.45847 -0.461377,0.0965 -0.944168,-0.13961 -0.631341,-0.30876 -0.819149,-0.99121 -0.187808,-0.68244 0.169389,-1.41281 0.254276,-0.51993 0.689134,-0.82882 0.434859,-0.3089 1.15706,-0.53095 z"
         style="font-style:italic;font-variant:normal;font-weight:normal;font-stretch:normal;font-family:'Tw Cen MT';-inkscape-font-specification:'Tw Cen MT Italic';text-align:center;text-anchor:middle;fill:#ffffff;stroke-width:0.26458332"
         id="path7153"
         inkscape:connector-curvature="0" />
      <path
         d="m 37.318381,144.18518 -0.448288,1.09706 -3.04439,-1.83949 -0.167,-0.0831 q -0.771765,-0.31536 -1.165321,0.64775 -0.208506,0.51026 -0.06888,1.00646 0.137019,0.50259 0.544675,0.7436 l 2.978277,1.7827 -0.437863,1.07154 -2.996246,-1.77515 q -0.889244,-0.51968 -1.169045,-1.43789 -0.282407,-0.91182 0.131999,-1.92596 0.328397,-0.80366 1.051484,-1.17063 0.72048,-0.3606 1.415707,-0.0765 0.401828,0.1642 0.661619,0.3299 0.263564,0.17469 0.318361,0.20453 z"
         style="font-style:italic;font-variant:normal;font-weight:normal;font-stretch:normal;font-family:'Tw Cen MT';-inkscape-font-specification:'Tw Cen MT Italic';text-align:center;text-anchor:middle;fill:#ffffff;stroke-width:0.26458332"
         id="path7155"
         inkscape:connector-curvature="0" />
      <path
         d="m 38.470351,151.23268 -0.357494,1.12991 -3.816012,-1.87223 q 0.393628,1.08571 0.133821,1.90687 -0.332552,1.05107 -1.364373,1.54847 -1.027329,0.50605 -2.130959,0.15687 -1.136477,-0.35957 -1.731004,-1.47271 -0.596606,-1.10657 -0.249504,-2.20363 0.207845,-0.65692 0.75896,-1.09684 0.551114,-0.43991 1.216835,-0.51113 l -1.1305,-0.53835 0.357494,-1.12991 z m -7.117324,1.68676 q 0.735754,0.23279 1.414764,-0.10885 0.67901,-0.34163 0.903483,-1.0511 0.236943,-0.7489 -0.161734,-1.45318 -0.394187,-0.69564 -1.208771,-0.95337 -0.729185,-0.23071 -1.410273,0.1175 -0.674519,0.35028 -0.903149,1.07289 -0.222394,0.70291 0.187343,1.41792 0.409738,0.71501 1.178337,0.95819 z"
         style="font-style:italic;font-variant:normal;font-weight:normal;font-stretch:normal;font-family:'Tw Cen MT';-inkscape-font-specification:'Tw Cen MT Italic';text-align:center;text-anchor:middle;fill:#ffffff;stroke-width:0.26458332"
         id="path7157"
         inkscape:connector-curvature="0" />
      <path
         d="m 36.648671,157.51052 -0.286223,1.15003 -8.559827,-3.52206 0.286223,-1.15003 z"
         style="font-style:italic;font-variant:normal;font-weight:normal;font-stretch:normal;font-family:'Tw Cen MT';-inkscape-font-specification:'Tw Cen MT Italic';text-align:center;text-anchor:middle;fill:#ffffff;stroke-width:0.26458332"
         id="path7159"
         inkscape:connector-curvature="0" />
      <path
         d="m 34.975041,159.65577 q 0.303507,0.0634 0.47425,0.32431 0.170743,0.26091 0.107342,0.56442 -0.0634,0.30351 -0.324312,0.47425 -0.262321,0.17749 -0.565829,0.11409 -0.310252,-0.0648 -0.480994,-0.32573 -0.170743,-0.26091 -0.105934,-0.57116 0.0634,-0.30351 0.324312,-0.47425 0.267657,-0.16933 0.571165,-0.10593 z m -2.381566,-0.72978 -0.239512,1.14659 -5.241817,-1.89742 0.239512,-1.14658 z"
         style="font-style:italic;font-variant:normal;font-weight:normal;font-stretch:normal;font-family:'Tw Cen MT';-inkscape-font-specification:'Tw Cen MT Italic';text-align:center;text-anchor:middle;fill:#ffffff;stroke-width:0.26458332"
         id="path7161"
         inkscape:connector-curvature="0" />
      <path
         d="m 26.633453,160.08046 5.367079,1.52531 -0.152939,1.1752 -1.031766,-0.29408 q 0.499853,0.69734 0.74269,1.18059 0.249669,0.48413 0.189204,0.94874 -0.128932,0.99072 -1.370916,1.03059 1.073929,1.25149 0.961002,2.11923 -0.06758,0.51927 -0.508326,0.80933 -0.440749,0.29006 -1.062513,0.20914 -0.143484,-0.0187 -0.230529,-0.0439 l -3.884646,-1.11699 0.15294,-1.1752 3.900089,1.1051 q 0.02555,0.0172 0.107543,0.0279 0.560271,0.0729 0.633184,-0.48736 0.06669,-0.51245 -0.416785,-1.06869 -0.476642,-0.55536 -1.206276,-0.76844 l -2.760781,-0.78313 0.15294,-1.1752 3.691836,1.05021 q 0.05288,0.0208 0.196366,0.0395 0.683257,0.0889 0.759727,-0.49868 0.06936,-0.53294 -0.427783,-1.09097 -0.498028,-0.55119 -1.22083,-0.76338 l -2.73345,-0.77957 z"
         style="font-style:italic;font-variant:normal;font-weight:normal;font-stretch:normal;font-family:'Tw Cen MT';-inkscape-font-specification:'Tw Cen MT Italic';text-align:center;text-anchor:middle;fill:#ffffff;stroke-width:0.26458332"
         id="path7163"
         inkscape:connector-curvature="0" />
      <path
         d="m 33.517238,170.81506 q 0.309616,0.0166 0.518016,0.2485 0.2084,0.23194 0.191846,0.54156 -0.01655,0.30962 -0.248498,0.51802 -0.232311,0.21528 -0.541928,0.19872 -0.316496,-0.0169 -0.524896,-0.24886 -0.2084,-0.23195 -0.191478,-0.54844 0.01655,-0.30962 0.248498,-0.51802 0.238824,-0.20803 0.54844,-0.19148 z m -2.464791,-0.35948 -0.06254,1.16966 -5.469234,-1.07903 0.06254,-1.16966 z"
         style="font-style:italic;font-variant:normal;font-weight:normal;font-stretch:normal;font-family:'Tw Cen MT';-inkscape-font-specification:'Tw Cen MT Italic';text-align:center;text-anchor:middle;fill:#ffffff;stroke-width:0.26458332"
         id="path7165"
         inkscape:connector-curvature="0" />
      <path
         d="m 33.397449,174.18665 -0.01375,1.17125 -2.46223,-0.39412 -0.01189,1.01279 -1.086795,-0.16436 0.01197,-1.01967 -4.422321,-0.71344 0.01392,-1.18503 4.422158,0.72721 0.01028,-0.87499 1.086715,0.17125 -0.01011,0.86121 z"
         style="font-style:italic;font-variant:normal;font-weight:normal;font-stretch:normal;font-family:'Tw Cen MT';-inkscape-font-specification:'Tw Cen MT Italic';text-align:center;text-anchor:middle;fill:#ffffff;stroke-width:0.26458332"
         id="path7167"
         inkscape:connector-curvature="0" />
      <path
         d="m 31.14903,181.02154 0.06395,1.16959 -5.554826,-0.50362 -0.06471,-1.18334 0.596187,0.0502 q -0.793926,-0.76395 -0.844712,-1.69274 -0.06019,-1.10078 0.741646,-1.95888 0.809094,-0.8516 1.971799,-0.91518 1.210865,-0.0662 2.124006,0.73262 0.913518,0.8057 0.977848,1.98217 0.07599,1.38974 -1.231465,2.21339 z m -2.651183,-0.15175 q 0.736151,-0.0402 1.236561,-0.60585 0.507665,-0.5591 0.468165,-1.28149 -0.04138,-0.75679 -0.655894,-1.26833 -0.607257,-0.50503 -1.432846,-0.45988 -0.81183,0.0444 -1.313745,0.58247 -0.501914,0.53808 -0.459404,1.31551 0.04326,0.79119 0.649391,1.27558 0.606503,0.49127 1.507772,0.44199 z"
         style="font-style:italic;font-variant:normal;font-weight:normal;font-stretch:normal;font-family:'Tw Cen MT';-inkscape-font-specification:'Tw Cen MT Italic';text-align:center;text-anchor:middle;fill:#ffffff;stroke-width:0.26458332"
         id="path7169"
         inkscape:connector-curvature="0" />
      <path
         d="m 33.985878,184.25269 0.143082,1.16257 -2.492824,-0.0611 0.123724,1.00528 -1.099014,-0.0175 -0.124566,-1.01211 -4.478013,-0.11532 -0.144766,-1.17624 4.479698,0.129 -0.106891,-0.8685 1.099856,0.0243 0.105207,0.85483 z"
         style="font-style:italic;font-variant:normal;font-weight:normal;font-stretch:normal;font-family:'Tw Cen MT';-inkscape-font-specification:'Tw Cen MT Italic';text-align:center;text-anchor:middle;fill:#ffffff;stroke-width:0.26458332"
         id="path7171"
         inkscape:connector-curvature="0" />
      <path
         d="m 29.721187,192.16084 -0.803104,-4.30093 q -0.803106,0.24108 -1.155643,0.75551 -0.351272,0.52119 -0.21974,1.2256 0.137855,0.73827 1.152339,1.40397 l -0.546596,0.78897 q -1.245585,-0.6646 -1.499796,-2.026 -0.226386,-1.21239 0.400306,-2.13548 0.627956,-0.91631 1.833572,-1.14143 1.232709,-0.23018 2.259024,0.46134 1.026316,0.69153 1.253967,1.91069 0.193504,1.03629 -0.435268,1.9107 -0.628772,0.87442 -1.719245,1.07804 -0.270925,0.0506 -0.519816,0.069 z m 0.07226,-4.38027 0.593158,3.17659 q 1.284981,-0.5133 1.05227,-1.75956 -0.116355,-0.62312 -0.553294,-1.01116 -0.435675,-0.38126 -1.092134,-0.40587 z"
         style="font-style:italic;font-variant:normal;font-weight:normal;font-stretch:normal;font-family:'Tw Cen MT';-inkscape-font-specification:'Tw Cen MT Italic';text-align:center;text-anchor:middle;fill:#ffffff;stroke-width:0.26458332"
         id="path7173"
         inkscape:connector-curvature="0" />
      <path
         d="m 28.311874,192.94497 0.955346,0.42319 q -0.309309,0.485 -0.423939,0.84171 -0.112914,0.36339 -0.01172,0.75711 0.08233,0.32032 0.292412,0.50109 0.216759,0.17906 0.436978,0.12246 0.360358,-0.0926 0.565606,-0.89947 0.205247,-0.80685 0.511875,-1.19156 0.308343,-0.37804 0.842208,-0.51526 0.674004,-0.17322 1.288263,0.2238 0.620932,0.39532 0.807881,1.12271 0.176659,0.68735 -0.277246,1.79999 l -0.955346,-0.42319 q 0.293903,-0.79407 0.19271,-1.18779 -0.07547,-0.29363 -0.305384,-0.44085 -0.223245,-0.14893 -0.490178,-0.0803 -0.220219,0.0566 -0.35752,0.26974 -0.128912,0.2181 -0.285327,0.82743 -0.156415,0.60933 -0.444738,0.98223 -0.288323,0.37289 -0.808841,0.50667 -0.680677,0.17495 -1.266527,-0.22227 -0.585851,-0.39721 -0.788237,-1.18467 -0.144071,-0.56055 -0.01379,-1.0778 0.130283,-0.51724 0.535513,-1.15495 z"
         style="font-style:italic;font-variant:normal;font-weight:normal;font-stretch:normal;font-family:'Tw Cen MT';-inkscape-font-specification:'Tw Cen MT Italic';text-align:center;text-anchor:middle;fill:#ffffff;stroke-width:0.26458332"
         id="path7175"
         inkscape:connector-curvature="0" />
      <path
         d="m 29.814393,201.54897 5.441548,-1.22445 0.419608,1.0936 -0.96037,0.22827 q 0.724961,0.31223 1.145184,0.63807 0.422692,0.33228 0.620154,0.84691 0.214741,0.55966 -0.07812,1.18125 -0.292858,0.62159 -0.878253,0.8462 -0.141524,0.0543 -0.230088,0.0735 l -3.751868,0.81966 -0.414672,-1.08072 3.468373,-0.76993 q 0.06927,-0.0118 0.217222,-0.0686 0.392407,-0.15056 0.548,-0.47594 0.15806,-0.31895 0.0149,-0.69206 -0.227083,-0.59182 -1.024826,-0.82447 -0.797744,-0.23265 -1.873383,0.003 l -2.243805,0.49932 z"
         style="font-style:italic;font-variant:normal;font-weight:normal;font-stretch:normal;font-family:'Tw Cen MT';-inkscape-font-specification:'Tw Cen MT Italic';text-align:center;text-anchor:middle;fill:#ffffff;stroke-width:0.26458332"
         id="path7177"
         inkscape:connector-curvature="0" />
      <path
         d="m 34.51071,206.3648 q 1.118706,-0.53542 2.29795,-0.11443 1.182219,0.42721 1.726565,1.56456 0.541372,1.13114 0.174135,2.23118 -0.361021,1.09707 -1.442437,1.61465 -1.149782,0.55029 -2.289027,0.13307 -1.13303,-0.4202 -1.698198,-1.60105 -0.55327,-1.156 -0.21116,-2.22874 0.348326,-1.07572 1.442172,-1.59924 z m 2.982832,1.98689 q -0.348025,-0.72716 -1.070763,-0.99235 -0.716523,-0.26816 -1.381532,0.0501 -0.665009,0.31828 -0.863475,0.92506 -0.198466,0.60678 0.134685,1.30286 0.371822,0.77688 1.035916,1.04722 0.667069,0.27655 1.375583,-0.0625 0.646364,-0.30936 0.866981,-0.94965 0.226833,-0.64328 -0.09739,-1.32071 z"
         style="font-style:italic;font-variant:normal;font-weight:normal;font-stretch:normal;font-family:'Tw Cen MT';-inkscape-font-specification:'Tw Cen MT Italic';text-align:center;text-anchor:middle;fill:#ffffff;stroke-width:0.26458332"
         id="path7179"
         inkscape:connector-curvature="0" />
      <path
         d="m 39.808021,210.70135 0.614332,1.06151 -2.122252,2.4542 3.5718,0.0505 0.655748,1.13306 -6.681947,-0.0735 z"
         style="font-style:italic;font-variant:normal;font-weight:normal;font-stretch:normal;font-family:'Tw Cen MT';-inkscape-font-specification:'Tw Cen MT Italic';text-align:center;text-anchor:middle;fill:#ffffff;stroke-width:0.26458332"
         id="path7181"
         inkscape:connector-curvature="0" />
      <path
         d="m 45.462345,219.6894 0.664722,0.96445 -5.001747,2.46825 -0.672543,-0.9758 0.53482,-0.26819 q -1.075868,-0.23756 -1.603735,-1.00345 -0.625621,-0.90772 -0.389208,-2.05811 0.245996,-1.14862 1.204773,-1.80943 0.998489,-0.68819 2.194263,-0.48306 1.199684,0.21081 1.868316,1.18093 0.789846,1.146 0.104096,2.53076 z m -2.340985,1.25363 q 0.607036,-0.41838 0.738885,-1.16197 0.141433,-0.74183 -0.269131,-1.33752 -0.430114,-0.62406 -1.22124,-0.73988 -0.781542,-0.11406 -1.46233,0.35515 -0.669442,0.4614 -0.816931,1.1823 -0.14749,0.7209 0.294355,1.36197 0.449665,0.65242 1.219476,0.74947 0.773722,0.10271 1.516916,-0.40952 z"
         style="font-style:italic;font-variant:normal;font-weight:normal;font-stretch:normal;font-family:'Tw Cen MT';-inkscape-font-specification:'Tw Cen MT Italic';text-align:center;text-anchor:middle;fill:#ffffff;stroke-width:0.26458332"
         id="path7183"
         inkscape:connector-curvature="0" />
      <path
         d="m 47.37386,227.00802 -2.763779,-3.39184 q -0.589736,0.59608 -0.653036,1.21649 -0.05895,0.62575 0.393703,1.18126 0.474413,0.58222 1.683773,0.68113 l -0.102269,0.95435 q -1.411743,0.0127 -2.286577,-1.06096 -0.779082,-0.95612 -0.670681,-2.06656 0.112752,-1.1051 1.063534,-1.87983 0.972147,-0.79214 2.204258,-0.67623 1.232111,0.11592 2.015544,1.07739 0.665919,0.81724 0.532393,1.88594 -0.133525,1.0687 -0.993502,1.76944 -0.213658,0.17409 -0.423361,0.30942 z m -2.033184,-3.88049 2.04128,2.50514 q 0.882525,-1.06574 0.08168,-2.04857 -0.400422,-0.49141 -0.96979,-0.62297 -0.565015,-0.12621 -1.153172,0.1664 z"
         style="font-style:italic;font-variant:normal;font-weight:normal;font-stretch:normal;font-family:'Tw Cen MT';-inkscape-font-specification:'Tw Cen MT Italic';text-align:center;text-anchor:middle;fill:#ffffff;stroke-width:0.26458332"
         id="path7185"
         inkscape:connector-curvature="0" />
    </g>
  </g>
  <g
     inkscape:groupmode="layer"
     id="layer3"
     inkscape:label="Layer 3"
     transform="translate(-9.2534894,-59.336229)">
    <g
       id="g6316"
       transform="matrix(0.59686186,0,0,0.59686186,108.16927,94.625314)"
       style="fill:#e01f1f;fill-opacity:1;stroke-width:1.67542958">
      <text
         id="text6302"
         y="174.65771"
         x="-34.135818"
         style="font-style:normal;font-weight:normal;font-size:79.82868195px;line-height:1.25;font-family:sans-serif;letter-spacing:0px;word-spacing:0px;fill:#e01f1f;fill-opacity:1;stroke:none;stroke-width:0.44329077"
         xml:space="preserve"><tspan
           style="font-style:normal;font-variant:normal;font-weight:normal;font-stretch:normal;font-family:Century;-inkscape-font-specification:Century;text-align:center;text-anchor:middle;fill:#e01f1f;fill-opacity:1;stroke-width:0.44329077"
           y="174.65771"
           x="-34.135818"
           id="tspan6300"
           sodipodi:role="line">R</tspan></text>
      <text
         xml:space="preserve"
         style="font-style:normal;font-weight:normal;font-size:35.27777863px;line-height:1.25;font-family:sans-serif;letter-spacing:0px;word-spacing:0px;fill:#e01f1f;fill-opacity:1;stroke:none;stroke-width:0.44329077"
         x="0.12570588"
         y="129.26314"
         id="text6308"><tspan
           sodipodi:role="line"
           id="tspan6306"
           x="0.12570596"
           y="129.26314"
           style="font-style:normal;font-variant:normal;font-weight:normal;font-stretch:normal;font-family:Century;-inkscape-font-specification:Century;text-align:center;text-anchor:middle;fill:#e01f1f;fill-opacity:1;stroke-width:0.44329077">3</tspan></text>
    </g>
  </g>
  <g
     inkscape:groupmode="layer"
     id="layer2"
     inkscape:label="Layer 2"
     transform="translate(-9.2534894,-59.336229)">
    <path
       style="opacity:1;fill:#fff6d5;fill-opacity:1;stroke:none;stroke-width:0.06290943;stroke-linecap:round;stroke-linejoin:miter;stroke-miterlimit:4;stroke-dasharray:none;stroke-dashoffset:0;stroke-opacity:1"
       d="m 60.100464,154.18048 -1.421103,-3.18815 -1.306151,1.16727 0.357809,-1.7148 -3.471578,0.36336 3.188158,-1.4211 -1.167272,-1.30615 1.714797,0.35781 -0.363366,-3.47157 1.421103,3.18815 1.306151,-1.16727 -0.357809,1.7148 3.471576,-0.36337 -3.188156,1.42111 1.167271,1.30615 -1.714796,-0.35781 z"
       id="path6156"
       inkscape:connector-curvature="0"
       sodipodi:nodetypes="ccccccccccccccccc" />
    <path
       sodipodi:nodetypes="ccccccccccccccccc"
       inkscape:connector-curvature="0"
       id="path6159"
       d="m 103.39813,115.15913 -1.4211,-3.18815 -1.30616,1.16727 0.35781,-1.7148 -3.471576,0.36336 3.188156,-1.4211 -1.167266,-1.30615 1.714786,0.35781 -0.36336,-3.47157 1.42111,3.18815 1.30615,-1.16727 -0.35781,1.7148 3.47158,-0.36337 -3.18816,1.42111 1.16727,1.30615 -1.71479,-0.35781 z"
       style="opacity:1;fill:#fff6d5;fill-opacity:1;stroke:none;stroke-width:0.06290943;stroke-linecap:round;stroke-linejoin:miter;stroke-miterlimit:4;stroke-dasharray:none;stroke-dashoffset:0;stroke-opacity:1" />
    <path
       style="opacity:1;fill:#fff6d5;fill-opacity:1;stroke:none;stroke-width:0.06290943;stroke-linecap:round;stroke-linejoin:miter;stroke-miterlimit:4;stroke-dasharray:none;stroke-dashoffset:0;stroke-opacity:1"
       d="m 151.77391,171.01847 -1.4211,-3.18815 -1.30615,1.16727 0.35781,-1.7148 -3.47158,0.36336 3.18816,-1.4211 -1.16727,-1.30615 1.71479,0.35781 -0.36336,-3.47157 1.4211,3.18815 1.30615,-1.16727 -0.35781,1.7148 3.47158,-0.36337 -3.18816,1.42111 1.16727,1.30615 -1.71479,-0.35781 z"
       id="path6161"
       inkscape:connector-curvature="0"
       sodipodi:nodetypes="ccccccccccccccccc" />
    <path
       sodipodi:nodetypes="ccccccccccccccccc"
       inkscape:connector-curvature="0"
       id="path6163"
       d="m 117.85945,207.02322 -1.4211,-3.18815 -1.30615,1.16727 0.35781,-1.7148 -3.47158,0.36336 3.18816,-1.4211 -1.16727,-1.30615 1.71479,0.35781 -0.36336,-3.47157 1.4211,3.18815 1.30615,-1.16727 -0.35781,1.7148 3.47158,-0.36337 -3.18816,1.42111 1.16727,1.30615 -1.71479,-0.35781 z"
       style="opacity:1;fill:#fff6d5;fill-opacity:1;stroke:none;stroke-width:0.06290943;stroke-linecap:round;stroke-linejoin:miter;stroke-miterlimit:4;stroke-dasharray:none;stroke-dashoffset:0;stroke-opacity:1" />
    <path
       style="opacity:1;fill:#fff6d5;fill-opacity:1;stroke:none;stroke-width:0.06290943;stroke-linecap:round;stroke-linejoin:miter;stroke-miterlimit:4;stroke-dasharray:none;stroke-dashoffset:0;stroke-opacity:1"
       d="m 98.268306,158.30417 -1.4211,-3.18815 -1.30616,1.16727 0.35781,-1.7148 -3.471581,0.36336 3.188161,-1.4211 -1.16727,-1.30615 1.71479,0.35781 -0.36336,-3.47157 1.42111,3.18815 1.30615,-1.16727 -0.35781,1.7148 3.471584,-0.36337 -3.188164,1.42111 1.16727,1.30615 -1.71479,-0.35781 z"
       id="path6165"
       inkscape:connector-curvature="0"
       sodipodi:nodetypes="ccccccccccccccccc" />
    <g
       id="g4790"
       transform="matrix(-0.99776122,-0.06687709,-0.06687709,0.99776122,270.48488,69.756797)">
      <g
         id="g10051"
         transform="matrix(0.51949744,0.12444394,-0.12469572,0.5205485,163.26094,11.386105)"
         style="stroke-width:1.87008619">
        <path
           style="fill:#ffe6d5;fill-opacity:0.98895024;stroke:#000000;stroke-width:0.37401724;stroke-miterlimit:4;stroke-dasharray:none;stroke-opacity:1"
           d="m -6.898067,113.36253 c 3.5e-6,5.3779 -3.19009,9.95528 -5.341591,13.77097 -2.379292,4.21969 -10.024327,19.01608 -12.895759,24.0622 -2.971774,-5.22246 -10.36132,-19.56656 -12.895758,-24.0622 -2.37897,-4.21986 -5.341595,-8.39307 -5.341592,-13.77097 7e-6,-10.7558 8.165142,-17.823832 18.23735,-17.823832 10.072208,0 18.2373431,7.068032 18.23735,17.823832 z"
           id="path10019"
           inkscape:connector-curvature="0"
           sodipodi:nodetypes="sscssss" />
        <path
           sodipodi:nodetypes="cssc"
           inkscape:connector-curvature="0"
           id="path10021"
           d="m -25.135111,151.1957 c -2.248715,-5.22246 -7.840317,-19.56656 -9.758104,-24.0622 -1.800144,-4.21986 -4.041936,-8.39307 -4.041934,-13.77097 6e-6,-10.7558 6.178489,-17.823838 13.800038,-17.823838"
           style="fill:none;fill-opacity:0.56157639;stroke:#000000;stroke-width:0.37401724;stroke-miterlimit:4;stroke-dasharray:none;stroke-opacity:1" />
        <path
           style="fill:none;fill-opacity:0.56157639;stroke:#000000;stroke-width:0.37401724;stroke-miterlimit:4;stroke-dasharray:none;stroke-opacity:1"
           d="m -25.128886,151.1957 c -1.065783,-5.22246 -3.715934,-19.56656 -4.624873,-24.0622 -0.853182,-4.21986 -1.915683,-8.39307 -1.915682,-13.77097 2e-6,-10.7558 2.928307,-17.823838 6.540555,-17.823838"
           id="path10023"
           inkscape:connector-curvature="0"
           sodipodi:nodetypes="cssc" />
        <path
           sodipodi:nodetypes="cssc"
           inkscape:connector-curvature="0"
           id="path10025"
           d="m -25.134465,151.1957 c 1.065783,-5.22246 3.715934,-19.56656 4.624873,-24.0622 0.853182,-4.21986 1.915683,-8.39307 1.915682,-13.77097 -2e-6,-10.7558 -2.928307,-17.823838 -6.540555,-17.823838"
           style="fill:none;fill-opacity:0.56157639;stroke:#000000;stroke-width:0.37401724;stroke-miterlimit:4;stroke-dasharray:none;stroke-opacity:1" />
        <path
           style="fill:none;fill-opacity:0.56157639;stroke:#000000;stroke-width:0.37401724;stroke-miterlimit:4;stroke-dasharray:none;stroke-opacity:1"
           d="m -25.135111,151.1957 c 2.248715,-5.22246 7.840317,-19.56656 9.758104,-24.0622 1.800144,-4.21986 4.041936,-8.39307 4.041934,-13.77097 -6e-6,-10.7558 -6.178489,-17.823838 -13.800038,-17.823838"
           id="path10027"
           inkscape:connector-curvature="0"
           sodipodi:nodetypes="cssc" />
        <path
           sodipodi:nodetypes="cssc"
           inkscape:connector-curvature="0"
           id="path10033"
           d="m -25.136418,151.1957 c -1.847844,-5.22246 -6.442648,-19.56656 -8.018557,-24.0622 -1.479238,-4.21986 -3.321393,-8.39307 -3.321391,-13.77097 4e-6,-10.7558 5.077069,-17.823838 11.339948,-17.823838"
           style="fill:none;fill-opacity:0.56157639;stroke:#000000;stroke-width:0.09350431;stroke-miterlimit:4;stroke-dasharray:none;stroke-opacity:1" />
        <path
           style="fill:none;fill-opacity:0.56157639;stroke:#000000;stroke-width:0.09350431;stroke-miterlimit:4;stroke-dasharray:none;stroke-opacity:1"
           d="m -25.128886,151.1957 c 1.847844,-5.22246 6.442648,-19.56656 8.018557,-24.0622 1.479238,-4.21986 3.321393,-8.39307 3.321391,-13.77097 -4e-6,-10.7558 -5.077069,-17.823838 -11.339948,-17.823838"
           id="path10047"
           inkscape:connector-curvature="0"
           sodipodi:nodetypes="cssc" />
        <path
           style="fill:none;stroke:#000000;stroke-width:0.09350431;stroke-linecap:butt;stroke-linejoin:miter;stroke-miterlimit:4;stroke-dasharray:none;stroke-opacity:1"
           d="M -25.128886,95.538691 V 151.1957"
           id="path10049"
           inkscape:connector-curvature="0" />
      </g>
      <path
         style="fill:none;stroke:#969696;stroke-width:0.26458332px;stroke-linecap:round;stroke-linejoin:miter;stroke-opacity:1"
         d="m 131.52675,86.263433 -9.39736,27.355607"
         id="path4590"
         inkscape:connector-curvature="0" />
      <g
         id="g4602"
         transform="rotate(18.11874,118.41762,-275.61422)" />
      <g
         transform="translate(-6.4796844,-3.6883009)"
         id="g7133">
        <path
           inkscape:connector-curvature="0"
           id="path7114"
           d="m 122.42832,128.22758 5.97798,1.60179 -3.22408,1.61244 -6.09437,-1.63298 z"
           style="fill:#ffffff;fill-opacity:1;stroke:#000000;stroke-width:0.1;stroke-linecap:butt;stroke-linejoin:miter;stroke-miterlimit:4;stroke-dasharray:none;stroke-opacity:1"
           sodipodi:nodetypes="ccccc" />
      </g>
      <g
         id="g7149">
        <path
           style="fill:none;stroke:#000000;stroke-width:0.1;stroke-linecap:butt;stroke-linejoin:miter;stroke-miterlimit:4;stroke-dasharray:none;stroke-opacity:1"
           d="m 115.94863,124.53928 6.18068,-10.92031 -0.20269,12.5221"
           id="path7135"
           inkscape:connector-curvature="0" />
        <path
           style="fill:none;stroke:#000000;stroke-width:0.1;stroke-linecap:butt;stroke-linejoin:miter;stroke-miterlimit:4;stroke-dasharray:none;stroke-opacity:1"
           d="m 118.58615,127.72232 3.54316,-14.10335 -9.40475,12.53275"
           id="path7137"
           inkscape:connector-curvature="0" />
      </g>
    </g>
    <path
       style="opacity:1;fill:#e01f1f;fill-opacity:1;stroke:none;stroke-width:3;stroke-linecap:round;stroke-linejoin:miter;stroke-miterlimit:4;stroke-dasharray:none;stroke-dashoffset:0;stroke-opacity:1"
       d="m 122.19929,157.07885 a 40.644182,13.988649 41.203561 0 0 -33.487539,-18.2034 47.693582,16.414865 41.203561 0 1 32.036379,19.86083 47.693582,16.414865 41.203561 0 1 23.88103,29.02031 40.644182,13.988649 41.203561 0 0 -22.42987,-30.67774 z"
       id="path6249"
       inkscape:connector-curvature="0" />
    <g
       id="g6297"
       transform="matrix(0.12022493,-0.33328904,0.33328904,0.12022493,-0.26721739,207.19274)"
       style="stroke-width:2.82238674">
      <path
         id="rect6408"
         transform="scale(0.26458333)"
         d="m 988.72461,377.89844 v 168.63867 l -42.44922,58.77734 v 81.63477 l 42.44922,-58.77734 h 42.85549 l 42.4492,58.77734 v -81.63477 l -42.4492,-58.77734 V 377.89844 Z"
         style="opacity:1;fill:#cccccc;fill-opacity:1;fill-rule:evenodd;stroke:none;stroke-width:9.03163719;stroke-linecap:butt;stroke-linejoin:round;stroke-miterlimit:4;stroke-dasharray:none;stroke-dashoffset:0;stroke-opacity:1"
         inkscape:connector-curvature="0" />
      <path
         inkscape:connector-curvature="0"
         id="path6410"
         d="m 272.9388,99.985786 h -11.33884 l 5.66942,-21.234119 z"
         inkscape:transform-center-y="-12.539982"
         inkscape:transform-center-x="2.1022807e-005"
         style="opacity:1;fill:#e01f1f;fill-opacity:1;fill-rule:evenodd;stroke:none;stroke-width:3.35393929;stroke-linecap:butt;stroke-linejoin:round;stroke-miterlimit:4;stroke-dasharray:none;stroke-dashoffset:0;stroke-opacity:1" />
    </g>
  </g>
</svg>
